<?xml version="1.0" encoding="utf-8"?>
<!-- Generator: Adobe Illustrator 16.0.0, SVG Export Plug-In . SVG Version: 6.00 Build 0)  -->
<!DOCTYPE svg PUBLIC "-//W3C//DTD SVG 1.1//EN" "http://www.w3.org/Graphics/SVG/1.1/DTD/svg11.dtd">
<svg version="1.1" id="Layer_1" xmlns="http://www.w3.org/2000/svg" xmlns:xlink="http://www.w3.org/1999/xlink" x="0px" y="0px"
	 width="2856.335px" height="1223.188px" viewBox="0 0 2856.335 1223.188" style="enable-background:new 0 0 2856.335 1223.188;"
	 xml:space="preserve">
<style type="text/css">
<![CDATA[
	.st0{fill:#FE5900;}
	.st1{fill-rule:evenodd;clip-rule:evenodd;fill:#FE5900;}
	.st2{fill-rule:evenodd;clip-rule:evenodd;fill:#FEC300;}
	.st3{fill-rule:evenodd;clip-rule:evenodd;fill:#FEFEFD;}
]]>
</style>
<g id="_x32_kopg9_1_">
	<g>
		<path class="st0" d="M915.095,0.094c646.667,0,1293.333,0,1940,0c-0.002,2.666-0.007,5.333-0.007,7.999
			c-0.006,303.619-0.012,607.237-0.018,910.856c-0.256,0.288-0.549,0.332-0.878,0.132c-2.01-1.825-4.465-0.944-6.693-0.945
			c-264.151-0.045-528.304-0.042-792.456-0.042c-377.146,0.001-754.292-0.001-1131.438,0.037c-2.253,0-4.686-0.769-6.75,0.89
			c-0.153,0.144-0.309,0.147-0.468,0.01c-2.022-2.287-1.264-5.078-1.265-7.667C915.093,607.605,915.095,303.85,915.095,0.094z
			 M1543.565,563.1c0-36.995-0.062-73.989,0.093-110.983c0.017-3.896-0.882-5.073-4.907-5.044
			c-25.662,0.185-51.326,0.195-76.987-0.006c-4.157-0.033-5.212,1.032-5.201,5.197c0.146,57.158,0.098,114.316,0.099,171.474
			c0,12.057-0.029,11.982-11.141,16.265c-18.779,7.236-38.291,10.604-58.299,12.164c-27.256,2.123-54.152,0.638-80.674-6.116
			c-45.699-11.637-82.469-36.268-108.668-75.765c-23.176-34.939-33.085-74.039-34.584-115.494
			c-1.322-36.537,3.815-72.034,19.014-105.601c16.873-37.264,43.538-65.293,80.124-83.753
			c26.335-13.288,54.493-19.807,83.702-22.252c25.502-2.134,50.85-0.934,76.04,3.757c34.077,6.346,66.208,18.171,96.917,34.053
			c2.655,1.374,4.103,1.838,4.118-2.163c0.101-25.317,0.333-50.634,0.627-75.95c0.033-2.866-0.644-4.445-3.632-5.466
			c-9.113-3.112-17.958-7.051-27.146-9.896c-55.839-17.291-112.84-23.072-171.002-16.592c-40.748,4.54-79.354,16.083-115.184,36.158
			c-49.432,27.697-86.469,67.23-110.434,118.559c-24.206,51.844-30.869,106.666-25.123,163.16
			c3.754,36.905,13.978,72.026,31.686,104.774c23.352,43.185,56.571,76.69,99.695,100.103
			c42.708,23.187,88.896,32.803,137.135,33.33c28.508,0.312,56.785-2.527,84.826-7.76c39.909-7.445,78.189-19.719,114.533-37.948
			c3.354-1.683,4.467-3.549,4.454-7.222C1543.514,637.088,1543.565,600.094,1543.565,563.1z M2323.177,543.233
			c40.156,0,80.312-0.055,120.469,0.085c4.012,0.015,5.572-0.815,5.378-5.162c-0.386-8.637-0.412-17.298-0.543-25.942
			c-0.405-26.958-4.186-53.326-12.511-78.989c-10.002-30.831-25.65-58.388-50.793-79.195
			c-43.893-36.326-94.52-44.357-148.723-31.046c-43.926,10.787-75.715,38.382-97.997,77.055
			c-22.691,39.383-30.862,82.293-29.766,127.421c0.644,26.489,4.737,52.271,13.379,77.265c11.433,33.061,29.61,61.733,57.112,83.799
			c31.811,25.522,68.964,36.364,109.119,38.3c22.411,1.08,44.497-1.461,66.327-6.507c27.612-6.382,53.388-17.017,77.021-32.788
			c3.114-2.078,3.626-3.727,2.184-7.23c-6.575-15.972-12.844-32.071-19.099-48.174c-1.177-3.03-2.068-3.854-5.44-2.021
			c-33.252,18.071-68.542,27.886-106.692,24.921c-58.454-4.543-101.148-44.966-105.41-105.949c-0.299-4.292,0.582-5.995,5.517-5.967
			C2242.864,543.334,2283.021,543.234,2323.177,543.233z M1881.434,543.232c40.163,0,80.327-0.045,120.491,0.074
			c3.708,0.011,5.169-0.639,5.131-4.818c-0.175-19.48-0.216-38.927-2.651-58.329c-3.531-28.137-10.905-55.034-24.393-80.072
			c-14.639-27.175-34.908-49.02-62.246-63.724c-32.288-17.366-66.869-22.026-102.945-17.498
			c-35.079,4.403-65.107,19.321-90.067,44.157c-25.675,25.547-41.635,56.803-50.161,91.623
			c-12.597,51.442-11.007,102.646,6.614,152.819c11.121,31.664,29.062,59.067,55.317,80.371
			c32.101,26.046,69.679,37.161,110.405,38.981c27.854,1.245,55.084-2.729,81.734-10.662c21.933-6.526,42.55-15.977,61.5-28.904
			c1.896-1.294,3.765-2.219,2.436-5.464c-6.736-16.448-13.264-32.983-19.639-49.575c-1.422-3.698-2.713-3.593-5.953-1.859
			c-37.785,20.213-77.637,30.496-120.566,22.637c-34.886-6.388-61.596-24.858-78.28-56.682
			c-7.673-14.634-11.504-30.338-12.543-46.822c-0.39-6.183-0.715-6.25,5.325-6.25
			C1801.106,543.231,1841.27,543.233,1881.434,543.232z M2569.201,394.046c0,83.142,0.011,166.283-0.025,249.425
			c-0.003,5.171,0.237,10.305,0.854,15.436c3.705,30.797,17.813,53.688,48.729,63.499c17.444,5.536,35.355,5.683,53.31,3.231
			c15.424-2.106,30.064-6.897,43.945-13.948c2.119-1.076,4.366-1.734,3.708-5.389c-3.387-18.806-6.438-37.672-9.568-56.523
			c-0.491-2.963-1.447-4.268-4.933-3.252c-7.884,2.296-16.047,2.712-24.236,2.463c-13.698-0.417-21.148-6.805-23.762-20.245
			c-1.529-7.865-1.907-15.839-1.911-23.789c-0.07-155.453-0.069-310.906,0.041-466.359c0.004-4.412-0.902-5.847-5.627-5.797
			c-24.99,0.262-49.986,0.259-74.976,0.002c-4.726-0.049-5.653,1.384-5.646,5.824
			C2569.235,223.765,2569.201,308.905,2569.201,394.046z"/>
		<path class="st3" d="M1363.159,1117.149c0,14.491,0.22,28.987-0.127,43.47c-0.111,4.641,1.355,5.634,5.61,5.339
			c5.471-0.379,11.012-0.408,16.477,0.008c4.275,0.324,5.602-0.743,5.524-5.266c-0.299-17.484-0.139-34.977-0.135-52.466
			c0.003-11.067,2.104-13.796,12.927-16.89c1.278-0.365,2.542-0.785,3.829-1.114c10.285-2.637,17.452,2.688,17.918,13.323
			c0.16,3.654,0.353,7.311,0.362,10.967c0.04,15.324,0.191,30.652-0.094,45.971c-0.084,4.534,1.328,5.742,5.67,5.46
			c5.805-0.377,11.665-0.312,17.479-0.003c3.573,0.189,4.544-0.996,4.515-4.467c-0.146-17.655-0.068-35.312-0.068-52.969
			c-0.001-11.572,2.152-14.41,13.357-17.584c1.115-0.315,2.23-0.641,3.364-0.87c10.167-2.062,16.423,2.451,17.808,12.659
			c0.56,4.132,0.719,8.258,0.709,12.415c-0.037,15.157,0.115,30.317-0.104,45.472c-0.057,3.984,0.745,5.674,5.135,5.357
			c5.635-0.406,11.334-0.34,16.979-0.011c4.077,0.238,5.445-0.923,5.396-5.202c-0.226-19.652-0.024-39.31-0.154-58.963
			c-0.046-6.829-0.984-13.585-3.976-19.864c-6.273-13.17-22.739-16.859-34.645-15.022c-9.697,1.495-18.334,5.46-26.14,11.305
			c-1.803,1.351-2.968,2.069-4.812-0.358c-7.933-10.448-18.819-12.702-31.146-10.654c-7.834,1.302-14.935,4.364-21.322,8.956
			c-3.475,2.498-5.104,2.214-5.61-2.271c-0.403-3.566-2.147-5.474-6.268-5.062c-4.288,0.429-8.673,0.363-12.977,0.021
			c-4.198-0.335-5.743,0.637-5.619,5.344C1363.398,1088.494,1363.158,1102.825,1363.159,1117.149z M2173.315,1090.579
			c0,21.829,0.102,43.659-0.097,65.486c-0.034,3.823,1.289,5.552,4.717,6.899c10.254,4.032,20.862,5.18,31.747,4.793
			c31.418-1.117,59.304-21.83,56.326-59.409c-1.387-17.503-9.855-30.389-26.131-37.606c-11.345-5.032-23.248-5.309-35.142-2.759
			c-3.916,0.84-3.605-0.696-3.595-3.306c0.057-13.663-0.059-27.327,0.077-40.989c0.028-2.823,16.2-4.465,13.289-4.376
			c-6.493,0.198-13.012,0.34-19.488-0.039c-4.218-0.246-21.806,2.088-21.779,5.818
			C2173.393,1046.92,2173.315,1068.75,2173.315,1090.579z M1172.23,1101.532c-0.213-2.579-0.359-3.523-0.36-4.469
			c-0.011-23.991-0.082-47.983,0.071-71.973c0.024-3.771,16.208-6.089,12.001-5.812c-5.807,0.382-11.673,0.364-17.482,0.006
			c-4.218-0.261-22.54,1.355-22.492,6.001c0.269,25.988,0.129,51.979,0.129,77.971c0,19.492,0.064,38.985-0.063,58.478
			c-0.021,3.158,0.7,4.36,4.098,4.214c6.485-0.278,12.999-0.256,19.486-0.003c3.339,0.13,4.343-0.974,4.299-4.246
			c-0.151-11.327-0.075-22.657-0.013-33.986c0.007-1.204-0.755-3.013,0.912-3.491c1.57-0.452,2.026,1.419,2.75,2.394
			c8.822,11.876,17.582,23.798,26.365,35.702c1.169,1.585,2.125,3.582,4.455,3.595c9.71,0.054,19.42,0.022,29.975,0.022
			c-1.078-1.485-1.525-2.129-2-2.751c-12.409-16.254-24.727-32.579-37.321-48.688c-2.247-2.874-1.652-4.354,0.519-6.622
			c6.789-7.093,13.413-14.345,20.048-21.583c5.07-5.532,10.06-11.138,15.688-17.379c-9.596,0-18.078,0.166-26.549-0.076
			c-3.73-0.107-6.03,1.325-8.438,4.074C1190.128,1082.254,1181.606,1091.299,1172.23,1101.532z M1343.202,1116.887
			c0.326-30.626-19.77-50.31-50.03-50.407c-29.505-0.095-51.79,22.573-50.049,55.135c1.293,24.167,18.112,46.176,49.66,46.277
			C1321.356,1167.983,1343.822,1147.291,1343.202,1116.887z M2735.177,1124.952c9.16,0,18.321-0.086,27.479,0.056
			c2.511,0.039,3.591-0.527,3.603-3.246c0.035-8.483-0.305-16.808-2.942-25.062c-10.823-33.873-53.312-39.053-73.47-17.276
			c-14.14,15.276-16.699,33.813-12.184,53.546c4.047,17.687,15.318,29.048,32.676,33.306c15.421,3.784,30.646,1.625,44.98-5.58
			c6.738-3.387,6.729-3.366,4.082-10.263c-0.89-2.318-1.916-4.624-2.451-7.031c-0.744-3.352-1.932-3.885-5.125-2.25
			c-8.648,4.426-17.986,5.886-27.57,4.452c-9.071-1.357-16.225-5.803-19.651-14.766c-1.884-4.927-1.115-5.857,4.091-5.875
			C2717.521,1124.934,2726.349,1124.955,2735.177,1124.952z M2066.22,1124.949c8.992,0,17.988-0.136,26.976,0.069
			c3.399,0.078,4.924-0.774,4.657-4.429c-0.289-3.961-0.289-7.927-0.677-11.907c-2.067-21.232-15.861-37.922-36.515-41.527
			c-18.7-3.265-37.617,5.365-46.697,22.033c-6.331,11.622-7.892,24.061-6.406,36.676c1.779,15.109,8.099,28.363,22.386,35.662
			c20.661,10.555,41.001,7.738,60.757-3.069c1.773-0.97,2.621-2.092,1.537-4.415c-1.679-3.596-3.002-7.387-4.142-11.194
			c-0.846-2.826-2.048-3.126-4.563-1.862c-8.826,4.43-18.221,5.757-28.005,4.727c-8.87-0.934-18.026-8.394-20.147-16.338
			c-0.833-3.123-0.396-4.578,3.364-4.486C2047.897,1125.11,2057.061,1124.96,2066.22,1124.949z M1733.191,1124.952
			c9.165,0,18.333-0.117,27.494,0.064c3.147,0.062,4.521-0.652,4.433-4.111c-0.18-6.999-0.456-13.981-2.291-20.755
			c-4.406-16.266-14.16-27.919-30.794-32.062c-17.755-4.422-34.058-0.836-45.876,13.916c-12.797,15.974-14.544,34.497-9.088,53.815
			c4.606,16.312,15.58,26.637,31.834,30.433c15.262,3.563,30.3,1.804,44.514-5.378c7.244-3.66,7.286-3.529,4.448-10.827
			c-0.779-2.003-1.518-4.037-2.067-6.111c-0.88-3.325-1.865-4.565-5.756-2.614c-8.628,4.326-17.995,5.472-27.621,4.33
			c-8.947-1.062-17.905-8.489-19.937-16.548c-0.724-2.873-0.274-4.284,3.213-4.209
			C1714.858,1125.093,1724.026,1124.962,1733.191,1124.952z M1037.479,1124.952c9.161,0,18.323-0.061,27.483,0.045
			c2.083,0.024,3.497,0.058,3.481-2.689c-0.048-8.475,0.217-16.941-2.612-25.145c-6.333-18.36-19.13-28.967-38.414-30.474
			c-18.249-1.427-32.981,5.603-42.044,21.967c-8.567,15.472-9.416,32.007-4.045,48.693c4.449,13.823,13.626,23.317,27.726,27.711
			c16.675,5.196,32.712,3.197,48.276-4.2c7.357-3.497,7.338-3.522,4.446-10.869c-0.852-2.165-1.961-4.285-2.416-6.534
			c-0.704-3.478-2.052-3.77-5.116-2.265c-8.703,4.274-18.012,5.874-27.606,4.431c-9.295-1.398-16.393-6.179-19.957-15.205
			c-1.646-4.166-0.68-5.426,3.814-5.454C1019.49,1124.906,1028.485,1124.946,1037.479,1124.952z M956.278,1099.511
			c0-21.32-0.113-42.641,0.101-63.958c0.04-4.052-1.171-5.117-5.04-4.907c-5.812,0.316-11.673,0.366-17.479-0.011
			c-4.307-0.279-5.597,0.861-5.574,5.403c0.199,40.64,0.142,81.281,0.074,121.922c-0.006,3.81-0.249,7.688-0.991,11.414
			c-1.615,8.109-6.581,11.869-14.872,11.585c-2.297-0.079-4.613-0.48-6.857-1.004c-3.484-0.813-5.78-0.382-6.505,3.826
			c-0.729,4.233-1.903,8.423-3.271,12.501c-0.942,2.808-0.208,3.871,2.556,4.521c6.994,1.646,14.049,2.438,21.219,2.091
			c18.26-0.885,30.014-9.658,34.558-26.146c1.409-5.109,2.104-10.415,2.097-15.776
			C956.266,1140.483,956.281,1119.997,956.278,1099.511z M2499.39,1127.754c0-11.327,0.109-22.655-0.068-33.979
			c-0.052-3.251,0.887-4.358,4.203-4.358c4.941,0,10.972,2.054,14.552-0.867c3.672-2.995,3.692-9.277,5.263-14.138
			c0.101-0.313,0.264-0.606,0.393-0.911c1.345-3.175,0.999-5.059-3.158-4.635c-2.473,0.252-4.992,0.046-7.49,0.046
			c-13.827,0.001-13.827,0-13.709-13.769c0.08-9.354,3.772-12.489,13.158-12.851c3.806-0.146,7.905,4.886,10.902,0.48
			c2.214-3.253,2.477-7.838,3.582-11.836c0.176-0.638,0.023-1.428,0.342-1.954c2.104-3.476-0.178-4.771-2.868-5.671
			c-10.675-3.574-21.505-4.088-32.12-0.188c-8.258,3.036-14.274,8.675-17.624,17.174c-3.17,8.043-2.658,16.324-2.59,24.603
			c0.024,3.005-0.906,4.013-3.985,4.083c-10.928,0.25-10.925,0.364-10.928,11.199c-0.003,9.309,0.011,9.61,9.005,9.202
			c4.958-0.225,6.012,1.444,5.959,6.134c-0.247,21.985-0.054,43.975-0.169,65.962c-0.017,3.325,0.581,4.737,4.393,4.493
			c6.304-0.402,12.668-0.374,18.976-0.002c3.605,0.213,4.073-1.213,4.038-4.237
			C2499.314,1150.409,2499.393,1139.081,2499.39,1127.754z M1548.376,1119.117c0,8.657-0.219,17.322,0.05,25.972
			c0.438,14.145,6.996,20.879,19.774,22.506c11.068,1.408,21.791-1.131,31.923-5.764c8.399-3.842,8.368-3.933,4.86-12.448
			c-1.13-2.743-1.595-6.461-3.653-7.947c-2.687-1.94-5.542,1.666-8.503,2.317c-9.878,2.172-17.487,2.377-17.071-12.527
			c0.345-12.311,0.265-24.644-0.03-36.957c-0.108-4.533,1.422-5.678,5.73-5.525c5.62,0.198,12.677,2.351,16.525-0.809
			c3.897-3.2,4.47-10.291,6.903-15.488c1.591-3.4,0.098-3.585-2.605-3.56c-7.491,0.07-14.987-0.104-22.476,0.087
			c-3.08,0.078-4.076-0.982-4.017-3.994c0.146-7.49-0.098-14.988,0.103-22.475c0.094-3.513-0.924-4.537-4.325-3.36
			c-3.884,1.344-7.826,2.56-11.811,3.561c-11.347,2.849-11.36,2.795-11.37,14.486c-0.009,11.714-0.021,12.012-11.533,11.585
			c-5.178-0.192-6.73,1.309-6.11,6.336c0.525,4.256-1.324,9.863,0.803,12.589c2.505,3.208,8.37,1.067,12.744,1.044
			c3.474-0.02,4.205,1.279,4.147,4.399C1548.276,1101.8,1548.38,1110.459,1548.376,1119.117z M2550.031,1120.467
			c0.035,0,0.071,0,0.106,0c0,9.161-0.164,18.326,0.046,27.482c0.214,9.302,6.103,16.67,15.005,18.681
			c15.057,3.4,28.829-0.553,41.934-7.87c1.972-1.101,2.407-2.347,1.384-4.48c-1.718-3.582-3.259-7.263-4.617-10.996
			c-0.886-2.435-1.755-3.048-4.31-1.712c-3.812,1.994-7.994,3.177-12.385,3.217c-6.184,0.055-9.854-3.193-9.904-9.311
			c-0.121-14.324,0.049-28.651-0.049-42.977c-0.02-2.827,0.851-3.811,3.715-3.7c5.156,0.2,10.326,0.024,15.49,0.07
			c1.907,0.018,3.615,0.014,4.434-2.241c1.699-4.674,3.447-9.333,5.346-13.929c1.159-2.808,1.033-4.003-2.589-3.872
			c-7.487,0.271-14.993-0.037-22.484,0.143c-2.991,0.072-4.051-0.695-3.943-3.894c0.258-7.654-0.084-15.328,0.169-22.983
			c0.112-3.376-0.981-4.049-3.949-3.123c-6.777,2.113-13.534,4.317-20.396,6.12c-2.562,0.673-3.088,1.928-3.038,4.206
			c0.099,4.496-0.37,9.041,0.138,13.48c0.615,5.377-1.579,6.764-6.461,6.197c-2.959-0.344-5.99-0.06-8.988-0.062
			c-1.375-0.001-2.928-0.017-2.824,1.893c0.314,5.785-1.87,12.332,0.928,17.096c1.724,2.936,8.073,0.579,12.326,0.96
			c0.166,0.015,0.336,0.021,0.5-0.002c3.628-0.52,4.545,1.25,4.479,4.622C2549.915,1102.474,2550.031,1111.472,2550.031,1120.467z
			 M2285.951,1084.667c0,19.994-0.09,39.99,0.032,59.984c0.08,13.114,6.773,21.547,18.311,22.905
			c6.105,0.719,12.286,0.471,18.281-1.339c8.734-2.636,8.905-2.975,7.01-12.116c-0.471-2.268-0.734-4.588-0.943-6.898
			c-0.341-3.748-1.905-4.966-5.936-4.471c-6.467,0.795-8.307-1.089-8.932-7.51c-0.146-1.486-0.085-2.995-0.085-4.493
			c-0.003-35.324-0.054-70.648,0.081-105.973c0.014-3.682,16.039-5.67,12.195-5.469c-6.148,0.32-12.339,0.328-18.486-0.002
			c-3.805-0.204-21.654,1.655-21.619,5.396C2286.048,1044.676,2285.949,1064.672,2285.951,1084.667z M1784.627,1117.238
			c0,14.651,0.11,29.304-0.076,43.953c-0.049,3.769,1.147,4.94,4.868,4.754c5.812-0.291,11.668-0.353,17.472,0.01
			c4.215,0.263,5.314-1.13,5.27-5.272c-0.213-19.478-0.062-38.959-0.137-58.438c-0.01-2.673,0.567-4.479,2.956-6.229
			c7.827-5.733,15.957-7.755,25.039-3.426c1.693,0.807,2.761,1.11,3.671-1.171c2.388-5.988,4.813-11.992,7.763-17.711
			c1.415-2.743,0.091-3.697-1.703-4.453c-5.414-2.283-10.98-3.551-16.967-2.369c-6.515,1.287-12.102,4.237-17.192,8.395
			c-4.593,3.75-5.101,3.756-6.075-1.689c-0.756-4.22-2.805-4.937-6.465-4.74c-4.648,0.249-9.329,0.236-13.979,0.003
			c-3.394-0.171-4.591,0.786-4.536,4.433C1784.755,1087.934,1784.626,1102.587,1784.627,1117.238z M2377.072,1117.646
			c0-14.807-0.085-29.613,0.069-44.418c0.032-3.106-0.519-4.516-4.014-4.389c-6.812,0.247-13.641,0.151-20.459,0.031
			c-2.461-0.044-3.551,0.525-3.543,3.293c0.085,30.111,0.077,60.223,0.014,90.335c-0.005,2.563,0.738,3.499,3.414,3.429
			c6.649-0.178,13.319-0.309,19.957,0.027c3.966,0.2,4.674-1.353,4.633-4.889
			C2376.975,1146.594,2377.073,1132.119,2377.072,1117.646z M1872.321,1153.631c-0.261-2.985,0.23-6.304-0.677-9.612
			c-0.585-2.134-1.619-2.61-3.547-2.222c-5.839,1.176-11.647,2.616-17.543,3.361c-3.64,0.46-4.649,1.833-4.237,5.319
			c1.41,11.959,0.022,23.569-5.33,34.471c-1.041,2.12-0.63,2.879,1.338,3.576c3.889,1.377,7.853,2.617,11.577,4.358
			c2.614,1.223,3.812,0.282,5.318-1.678C1867.68,1180.203,1872.464,1167.954,1872.321,1153.631z M2363.214,1055.034
			c9.42,0.082,16.718-6.781,16.949-15.939c0.227-8.902-7.264-16.237-16.613-16.269c-9.223-0.031-16.871,7.172-17.011,16.021
			C2346.397,1047.797,2353.769,1054.953,2363.214,1055.034z M1987.577,1039.213c0.187-9.28-6.326-16.096-15.662-16.39
			c-9.368-0.295-17.362,6.981-17.534,15.96c-0.172,8.973,6.95,15.995,16.508,16.276
			C1980.309,1055.337,1987.389,1048.614,1987.577,1039.213z M2407.207,1038.977c0.06,9.271,7.063,16.093,16.495,16.064
			c9.448-0.028,16.667-6.979,16.65-16.035c-0.016-9.108-7.246-16.164-16.574-16.176
			C2414.479,1022.817,2407.149,1029.96,2407.207,1038.977z"/>
		<path class="st2" d="M916.388,919.029c-14.986,0.121-29.973,0.346-44.959,0.347c-288.959,0.021-577.918,0.015-866.876,0.002
			c-1.486,0-2.972-0.186-4.458-0.284c0-304.833,0.008-609.667-0.093-914.5C0,0.845,0.845-0.002,4.595,0
			c186.833,0.107,373.667,0.094,560.5,0.094c0.09,1.491,0.258,2.982,0.259,4.473c0.015,135.805-0.01,271.609,0.13,407.413
			c0.004,4.626-1.472,5.423-5.669,5.402c-32.825-0.163-65.652-0.031-98.479-0.17c-3.896-0.017-5.177,0.988-5.133,5.038
			c0.206,18.994,0.23,37.992-0.01,56.985c-0.055,4.354,1.44,5.172,5.424,5.163c55.655-0.116,111.31-0.129,166.964,0.022
			c4.304,0.012,5.593-0.906,5.577-5.43c-0.175-51.155-0.116-102.311-0.11-153.467c0.013-108.477,0.031-216.954,0.047-325.431
			c93.667,0,187.333,0,281,0c0,303.756-0.002,607.512,0.028,911.269C915.124,913.951,914.365,916.742,916.388,919.029z
			 M465.063,700.634c0-9.662-0.184-19.329,0.092-28.983c0.107-3.754-0.963-4.616-4.689-4.712
			c-21.628-0.559-43.089-2.819-64.137-8.021c-18.197-4.497-35.671-10.987-52.497-19.317c-22.252-11.016-43.367-23.755-62.5-39.663
			c-13.831-11.499-26.722-24.027-39.781-36.366c-2.593-2.45-4.119-2.613-6.747,0.146c-13.206,13.861-26.576,27.568-40.075,41.144
			c-2.929,2.945-2.882,4.823,0.096,7.606c10.937,10.22,21.502,20.825,32.69,30.791c44.407,39.56,95.065,67.341,152.969,81.513
			c26.422,6.467,53.297,9.238,80.47,9.544c3.322,0.037,4.242-0.945,4.178-4.195C464.94,720.293,465.063,710.462,465.063,700.634z
			 M387.111,108.106c-24.808,0-49.616,0.087-74.422-0.092c-3.777-0.027-4.709,0.995-4.67,4.71
			c0.196,18.479,0.173,36.962,0.014,55.441c-0.03,3.519,0.582,4.911,4.569,4.899c49.282-0.144,98.564-0.137,147.847-0.009
			c3.818,0.01,4.731-1.132,4.696-4.803c-0.178-18.479-0.231-36.963,0.031-55.44c0.061-4.251-1.5-4.797-5.141-4.777
			C435.728,108.171,411.419,108.105,387.111,108.106z"/>
		<path class="st3" d="M634.095,0.094c-0.016,108.477-0.034,216.954-0.047,325.431c-0.006,51.156-0.064,102.312,0.11,153.467
			c0.016,4.523-1.273,5.441-5.577,5.43c-55.654-0.151-111.31-0.139-166.964-0.022c-3.984,0.009-5.479-0.81-5.424-5.163
			c0.24-18.993,0.216-37.991,0.01-56.985c-0.044-4.05,1.237-5.055,5.133-5.038c32.826,0.139,65.653,0.007,98.479,0.17
			c4.197,0.021,5.673-0.776,5.669-5.402c-0.14-135.804-0.115-271.608-0.13-407.413c-0.001-1.491-0.169-2.982-0.259-4.473
			C588.095,0.094,611.095,0.094,634.095,0.094z"/>
		<path class="st1" d="M1939.192,1213.761c-0.055-0.157-0.062-0.4-0.17-0.459c-3.021-1.633-7.987-1.449-8.981-4.344
			c-0.934-2.716,1.363-6.549,2.267-9.883c0.26-0.959,0.858-1.885,0.886-2.838c0.145-5.047,2.403-5.514,6.95-4.341
			c11.403,2.938,17.056-1.768,17.057-13.567c0.001-34.622,0.074-69.244-0.162-103.864c-0.033-4.722,1.358-5.916,5.817-5.646
			c6.136,0.372,12.313,0.188,18.47,0.05c2.615-0.059,3.39,0.84,3.379,3.461c-0.144,37.111,0.219,74.231-0.48,111.332
			c-0.233,12.378-6.386,22.494-18.455,27.922c-1.24,0.558-2.955,0.534-3.576,2.178
			C1954.525,1213.761,1946.859,1213.761,1939.192,1213.761z"/>
		<path class="st1" d="M2392.192,1213.761c-2.869-2.455-8.523-1.406-9.449-5.162c-0.764-3.101,1.496-6.951,2.438-10.464
			c0.214-0.8,0.729-1.573,0.738-2.362c0.059-4.738,2.314-4.969,6.346-3.918c11.823,3.083,17.686-1.595,17.785-14.037
			c0.129-15.983,0.025-31.969,0.024-47.953c-0.001-18.648,0.096-37.298-0.08-55.944c-0.035-3.734,0.649-5.362,4.831-5.105
			c6.138,0.377,12.318,0.218,18.475,0.044c2.849-0.08,4.111,0.444,4.101,3.758c-0.121,36.298,0.274,72.601-0.257,108.891
			c-0.209,14.267-6.873,25.462-20.907,31.05c-0.75,0.299-1.657,0.301-2.044,1.204
			C2406.859,1213.761,2399.525,1213.761,2392.192,1213.761z"/>
		<path class="st1" d="M2854.192,1071.761c-3.729,5.683-5.706,12.199-8.502,18.316c-1.267,2.772-2.02,3.537-4.922,2.198
			c-4.972-2.294-10.178-2.597-15.547-0.975c-8.996,2.718-11.464,5.807-11.463,15.043c0.001,18.325-0.105,36.652,0.094,54.976
			c0.041,3.791-0.995,4.844-4.761,4.644c-6.479-0.345-12.992-0.221-19.484-0.04c-2.612,0.072-3.497-0.689-3.49-3.337
			c0.074-30.152,0.091-60.306,0.006-90.459c-0.009-2.838,1.179-3.309,3.581-3.251c4.994,0.119,10.016,0.32,14.985-0.058
			c3.722-0.283,5.612,1.003,6.152,4.569c0.725,4.791,2.526,5.043,6.091,1.926c3.863-3.379,8.354-5.94,13.346-7.486
			c8.422-2.605,16.342-1.295,23.914,2.934C2854.192,1071.094,2854.192,1071.428,2854.192,1071.761z"/>
		<path class="st2" d="M2856.095,0.094c0.013,163.303,0.028,326.605,0.035,489.907c0.006,140.974,0.007,281.948-0.047,422.922
			c-0.001,2.002,1.012,4.312-1.013,6.025c0.006-303.619,0.012-607.237,0.018-910.856c0-2.666,0.005-5.333,0.007-7.999
			C2855.428,0.094,2855.762,0.094,2856.095,0.094z"/>
		<path class="st3" d="M1543.565,563.1c0,36.994-0.052,73.988,0.081,110.982c0.013,3.673-1.101,5.539-4.454,7.222
			c-36.344,18.229-74.624,30.503-114.533,37.948c-28.041,5.232-56.318,8.071-84.826,7.76c-48.238-0.527-94.427-10.144-137.135-33.33
			c-43.124-23.412-76.344-56.918-99.695-100.103c-17.708-32.748-27.932-67.869-31.686-104.774
			c-5.746-56.494,0.917-111.316,25.123-163.16c23.965-51.329,61.002-90.862,110.434-118.559
			c35.83-20.075,74.436-31.619,115.184-36.158c58.162-6.479,115.163-0.699,171.002,16.592c9.188,2.845,18.033,6.785,27.146,9.896
			c2.988,1.021,3.665,2.6,3.632,5.466c-0.294,25.315-0.526,50.632-0.627,75.95c-0.016,4.001-1.463,3.537-4.118,2.163
			c-30.709-15.882-62.84-27.707-96.917-34.053c-25.19-4.691-50.538-5.892-76.04-3.757c-29.209,2.445-57.367,8.964-83.702,22.252
			c-36.586,18.46-63.251,46.49-80.124,83.753c-15.198,33.566-20.336,69.063-19.014,105.601
			c1.499,41.455,11.408,80.555,34.584,115.494c26.199,39.497,62.969,64.128,108.668,75.765c26.521,6.754,53.418,8.239,80.674,6.116
			c20.008-1.56,39.52-4.928,58.299-12.164c11.111-4.282,11.141-4.208,11.141-16.265c-0.001-57.157,0.047-114.315-0.099-171.474
			c-0.011-4.165,1.044-5.23,5.201-5.197c25.661,0.201,51.325,0.19,76.987,0.006c4.025-0.029,4.924,1.147,4.907,5.044
			C1543.503,489.11,1543.565,526.104,1543.565,563.1z"/>
		<path class="st3" d="M2323.177,543.234c-40.156,0-80.312,0.1-120.468-0.128c-4.935-0.028-5.815,1.675-5.517,5.967
			c4.262,60.983,46.956,101.406,105.41,105.949c38.15,2.965,73.44-6.85,106.692-24.921c3.372-1.833,4.264-1.009,5.44,2.021
			c6.255,16.103,12.523,32.202,19.099,48.174c1.442,3.504,0.931,5.152-2.184,7.23c-23.634,15.771-49.409,26.406-77.021,32.788
			c-21.83,5.046-43.916,7.587-66.327,6.507c-40.155-1.936-77.309-12.777-109.119-38.3c-27.502-22.065-45.68-50.738-57.112-83.799
			c-8.642-24.993-12.735-50.775-13.379-77.265c-1.097-45.128,7.074-88.038,29.766-127.421
			c22.282-38.673,54.071-66.268,97.997-77.055c54.203-13.312,104.83-5.28,148.723,31.046c25.143,20.808,40.791,48.364,50.793,79.195
			c8.325,25.663,12.105,52.031,12.511,78.989c0.131,8.645,0.157,17.306,0.543,25.942c0.194,4.347-1.366,5.177-5.378,5.162
			C2403.489,543.179,2363.333,543.233,2323.177,543.234z M2277.613,479.134c25.488,0,50.978-0.114,76.464,0.11
			c4.355,0.038,5.245-1.232,4.902-5.307c-1.277-15.209-4.409-29.949-11.158-43.678c-14.281-29.049-37.058-45.944-70.099-45.775
			c-30.226,0.155-52.346,15.092-67.421,40.827c-8.736,14.915-12.612,31.28-13.949,48.407c-0.32,4.099,0.338,5.548,4.797,5.514
			C2226.636,479.037,2252.125,479.138,2277.613,479.134z"/>
		<path class="st3" d="M1881.434,543.232c-40.164,0.001-80.327-0.001-120.491,0.003c-6.04,0-5.715,0.067-5.325,6.25
			c1.039,16.484,4.87,32.188,12.543,46.822c16.685,31.823,43.395,50.294,78.28,56.682c42.93,7.859,82.781-2.424,120.566-22.637
			c3.24-1.733,4.531-1.839,5.953,1.859c6.375,16.592,12.902,33.127,19.639,49.575c1.329,3.245-0.539,4.17-2.436,5.464
			c-18.95,12.928-39.567,22.378-61.5,28.904c-26.65,7.933-53.881,11.907-81.734,10.662c-40.727-1.82-78.305-12.936-110.405-38.981
			c-26.256-21.304-44.196-48.707-55.317-80.371c-17.621-50.174-19.211-101.377-6.614-152.819
			c8.526-34.82,24.486-66.076,50.161-91.623c24.96-24.836,54.988-39.754,90.067-44.157c36.076-4.528,70.657,0.132,102.945,17.498
			c27.338,14.704,47.607,36.549,62.246,63.724c13.487,25.038,20.861,51.936,24.393,80.072c2.436,19.402,2.477,38.849,2.651,58.329
			c0.038,4.18-1.423,4.829-5.131,4.818C1961.761,543.188,1921.597,543.232,1881.434,543.232z M1836.122,479.146
			c25.486,0,50.973-0.086,76.457,0.093c3.837,0.027,4.815-1.041,4.569-4.767c-0.917-13.886-3.73-27.352-9.302-40.07
			c-13.069-29.838-34.898-48.518-68.393-49.883c-28.613-1.167-51.141,11.182-67.208,34.819
			c-10.897,16.032-16.517,33.936-17.317,53.331c-0.267,6.47-0.304,6.463,6.234,6.463
			C1786.149,479.13,1811.136,479.131,1836.122,479.146z"/>
		<path class="st3" d="M2569.201,394.046c0-85.141,0.034-170.281-0.097-255.422c-0.008-4.439,0.92-5.873,5.646-5.824
			c24.989,0.256,49.985,0.259,74.976-0.002c4.725-0.05,5.631,1.385,5.627,5.797c-0.11,155.453-0.111,310.906-0.041,466.359
			c0.004,7.95,0.382,15.924,1.911,23.789c2.613,13.44,10.063,19.828,23.762,20.245c8.189,0.249,16.353-0.167,24.236-2.463
			c3.485-1.016,4.441,0.289,4.933,3.252c3.131,18.852,6.182,37.718,9.568,56.523c0.658,3.654-1.589,4.312-3.708,5.389
			c-13.881,7.051-28.521,11.842-43.945,13.948c-17.954,2.451-35.865,2.305-53.31-3.231c-30.915-9.811-45.023-32.702-48.729-63.499
			c-0.617-5.131-0.857-10.265-0.854-15.436C2569.212,560.329,2569.201,477.188,2569.201,394.046z"/>
		<path class="st2" d="M2854.192,919.08c-2.163,0.061-4.326,0.172-6.488,0.172c-641.621,0.008-1283.242,0.009-1924.863-0.001
			c-1.992-0.001-3.985-0.151-5.982-0.231c2.062-1.658,4.494-0.89,6.747-0.89c377.146-0.038,754.292-0.036,1131.438-0.037
			c264.152,0,528.305-0.003,792.456,0.042C2849.728,918.136,2852.183,917.255,2854.192,919.08z"/>
		<path class="st1" d="M1363.159,1117.149c-0.001-14.324,0.239-28.655-0.138-42.97c-0.124-4.707,1.421-5.679,5.619-5.344
			c4.304,0.343,8.688,0.408,12.977-0.021c4.12-0.412,5.864,1.495,6.268,5.062c0.506,4.484,2.136,4.769,5.61,2.271
			c6.388-4.592,13.488-7.654,21.322-8.956c12.327-2.048,23.214,0.206,31.146,10.654c1.844,2.428,3.009,1.709,4.812,0.358
			c7.806-5.845,16.442-9.81,26.14-11.305c11.905-1.837,28.371,1.853,34.645,15.022c2.991,6.279,3.93,13.035,3.976,19.864
			c0.13,19.653-0.071,39.311,0.154,58.963c0.05,4.279-1.318,5.44-5.396,5.202c-5.645-0.329-11.344-0.396-16.979,0.011
			c-4.39,0.316-5.191-1.373-5.135-5.357c0.219-15.154,0.066-30.314,0.104-45.472c0.01-4.157-0.149-8.283-0.709-12.415
			c-1.385-10.208-7.641-14.722-17.808-12.659c-1.134,0.229-2.249,0.555-3.364,0.87c-11.205,3.174-13.358,6.012-13.357,17.584
			c0,17.656-0.078,35.313,0.068,52.969c0.029,3.471-0.941,4.656-4.515,4.467c-5.813-0.309-11.674-0.374-17.479,0.003
			c-4.342,0.282-5.754-0.926-5.67-5.46c0.285-15.318,0.134-30.646,0.094-45.971c-0.01-3.656-0.202-7.312-0.362-10.967
			c-0.466-10.635-7.633-15.96-17.918-13.323c-1.287,0.329-2.551,0.749-3.829,1.114c-10.822,3.094-12.924,5.822-12.927,16.89
			c-0.004,17.489-0.164,34.981,0.135,52.466c0.077,4.522-1.249,5.59-5.524,5.266c-5.465-0.416-11.006-0.387-16.477-0.008
			c-4.255,0.295-5.722-0.698-5.61-5.339C1363.379,1146.137,1363.159,1131.641,1363.159,1117.149z"/>
		<path class="st1" d="M2173.315,1090.579c0-21.829,0.077-43.659-0.075-65.487c-0.026-3.73,17.562-6.064,21.779-5.818
			c6.477,0.379,12.995,0.237,19.488,0.039c2.911-0.089-13.261,1.553-13.289,4.376c-0.136,13.662-0.021,27.326-0.077,40.989
			c-0.011,2.609-0.321,4.146,3.595,3.306c11.894-2.55,23.797-2.273,35.142,2.759c16.275,7.218,24.744,20.104,26.131,37.606
			c2.978,37.579-24.908,58.292-56.326,59.409c-10.885,0.387-21.493-0.761-31.747-4.793c-3.428-1.348-4.751-3.076-4.717-6.899
			C2173.417,1134.238,2173.315,1112.408,2173.315,1090.579z M2201.167,1117.706c-0.012,0-0.022,0-0.033,0
			c0,5.32,0.001,10.64,0,15.96c-0.004,11.582,2.185,13.551,13.774,11.893c2.571-0.368,5.17-1.241,7.515-2.379
			c11.61-5.632,15.91-15.256,16.009-27.858c0.112-14.312-13.069-30.467-34.216-24.686c-2.417,0.661-3.143,1.722-3.1,4.129
			C2201.252,1102.41,2201.167,1110.059,2201.167,1117.706z"/>
		<path class="st1" d="M1172.23,1101.532c9.376-10.233,17.897-19.278,26.077-28.623c2.407-2.749,4.707-4.182,8.438-4.074
			c8.471,0.242,16.953,0.076,26.549,0.076c-5.629,6.241-10.618,11.847-15.688,17.379c-6.635,7.238-13.259,14.49-20.048,21.583
			c-2.171,2.269-2.766,3.748-0.519,6.622c12.595,16.109,24.912,32.435,37.321,48.688c0.475,0.622,0.922,1.266,2,2.751
			c-10.555,0-20.265,0.031-29.975-0.022c-2.33-0.013-3.286-2.01-4.455-3.595c-8.783-11.904-17.543-23.826-26.365-35.702
			c-0.724-0.975-1.18-2.846-2.75-2.394c-1.667,0.479-0.905,2.287-0.912,3.491c-0.062,11.329-0.139,22.659,0.013,33.986
			c0.044,3.272-0.96,4.376-4.299,4.246c-6.487-0.253-13.001-0.275-19.486,0.003c-3.397,0.146-4.119-1.056-4.098-4.214
			c0.128-19.492,0.063-38.985,0.063-58.478c0-25.991,0.14-51.982-0.129-77.971c-0.048-4.646,18.274-6.262,22.492-6.001
			c5.81,0.358,11.676,0.376,17.482-0.006c4.207-0.277-11.977,2.04-12.001,5.812c-0.153,23.989-0.082,47.981-0.071,71.973
			C1171.871,1098.009,1172.018,1098.953,1172.23,1101.532z"/>
		<path class="st1" d="M1343.202,1116.887c0.62,30.404-21.846,51.097-50.419,51.005c-31.548-0.102-48.367-22.11-49.66-46.277
			c-1.741-32.562,20.544-55.229,50.049-55.135C1323.433,1066.577,1343.528,1086.261,1343.202,1116.887z M1270.98,1117.514
			c0.308,4.812,0.813,9.942,2.524,14.833c2.826,8.078,10.547,14.259,17.932,14.538c10.245,0.387,16.926-3.423,20.584-13.11
			c4.505-11.926,4.566-23.997-1.634-35.549c-3.846-7.166-10.358-10.083-18.134-10.108c-7.614-0.024-13.264,3.659-16.979,10.319
			C1272.018,1104.273,1271.414,1110.708,1270.98,1117.514z"/>
		<path class="st1" d="M2735.177,1124.954c-8.828,0.001-17.655-0.021-26.482,0.009c-5.206,0.018-5.975,0.948-4.091,5.875
			c3.427,8.963,10.58,13.408,19.651,14.766c9.584,1.434,18.922-0.026,27.57-4.452c3.193-1.635,4.381-1.102,5.125,2.25
			c0.535,2.407,1.562,4.713,2.451,7.031c2.646,6.896,2.656,6.876-4.082,10.263c-14.335,7.205-29.56,9.364-44.98,5.58
			c-17.357-4.258-28.629-15.619-32.676-33.306c-4.516-19.732-1.956-38.27,12.184-53.546c20.157-21.776,62.646-16.597,73.47,17.276
			c2.638,8.254,2.978,16.578,2.942,25.062c-0.012,2.719-1.092,3.285-3.603,3.246
			C2753.498,1124.866,2744.337,1124.952,2735.177,1124.954z M2720.249,1105.925c4.99,0,9.981,0.033,14.972-0.021
			c1.363-0.016,3.062,0.486,2.921-2.099c-0.472-8.706-8.156-16.764-16.477-17.071c-9.4-0.347-17.458,6.592-18.651,15.871
			c-0.357,2.782,0.716,3.448,3.262,3.368C2710.929,1105.826,2715.591,1105.931,2720.249,1105.925z"/>
		<path class="st1" d="M2066.22,1124.954c-9.159,0.006-18.322,0.156-27.476-0.066c-3.761-0.092-4.197,1.363-3.364,4.486
			c2.121,7.944,11.277,15.404,20.147,16.338c9.784,1.03,19.179-0.297,28.005-4.727c2.516-1.264,3.718-0.964,4.563,1.862
			c1.14,3.808,2.463,7.599,4.142,11.194c1.084,2.323,0.236,3.445-1.537,4.415c-19.756,10.808-40.096,13.624-60.757,3.069
			c-14.287-7.299-20.606-20.553-22.386-35.662c-1.485-12.615,0.075-25.054,6.406-36.676c9.08-16.668,27.997-25.298,46.697-22.033
			c20.653,3.605,34.447,20.295,36.515,41.527c0.388,3.98,0.388,7.946,0.677,11.907c0.267,3.654-1.258,4.507-4.657,4.429
			C2084.208,1124.813,2075.212,1124.949,2066.22,1124.954z M2051.632,1105.929c4.832,0,9.668-0.127,14.494,0.05
			c2.729,0.101,3.484-0.885,3.121-3.489c-1.256-9.006-8.334-15.589-17.125-15.769c-8.491-0.174-16.14,6.528-17.648,15.286
			c-0.471,2.733,0.068,4.071,3.165,3.964C2042.298,1105.809,2046.968,1105.929,2051.632,1105.929z"/>
		<path class="st1" d="M1733.191,1124.957c-9.165,0.005-18.333,0.136-27.494-0.062c-3.487-0.075-3.937,1.336-3.213,4.209
			c2.031,8.059,10.989,15.485,19.937,16.548c9.626,1.142,18.993-0.004,27.621-4.33c3.891-1.951,4.876-0.711,5.756,2.614
			c0.55,2.074,1.288,4.108,2.067,6.111c2.838,7.298,2.796,7.167-4.448,10.827c-14.214,7.182-29.252,8.941-44.514,5.378
			c-16.254-3.796-27.228-14.12-31.834-30.433c-5.456-19.318-3.709-37.842,9.088-53.815c11.818-14.752,28.121-18.338,45.876-13.916
			c16.634,4.143,26.388,15.796,30.794,32.062c1.835,6.773,2.111,13.756,2.291,20.755c0.089,3.459-1.285,4.174-4.433,4.111
			C1751.524,1124.835,1742.356,1124.952,1733.191,1124.957z M1718.791,1105.941c5.165,0,10.329,0.029,15.493-0.021
			c1.22-0.012,2.648,0.367,2.609-1.906c-0.134-7.703-7.282-15.991-14.971-17.097c-9.163-1.315-17.354,4.467-19.804,13.559
			c-1.104,4.099-0.828,6.079,4.187,5.545C1710.424,1105.581,1714.626,1105.931,1718.791,1105.941z"/>
		<path class="st1" d="M1037.479,1124.949c-8.994-0.003-17.989-0.043-26.983,0.015c-4.494,0.028-5.46,1.288-3.814,5.454
			c3.564,9.026,10.662,13.807,19.957,15.205c9.595,1.443,18.903-0.156,27.606-4.431c3.064-1.505,4.412-1.213,5.116,2.265
			c0.455,2.249,1.564,4.369,2.416,6.534c2.892,7.347,2.911,7.372-4.446,10.869c-15.564,7.397-31.602,9.396-48.276,4.2
			c-14.1-4.394-23.276-13.888-27.726-27.711c-5.371-16.687-4.522-33.222,4.045-48.693c9.062-16.364,23.795-23.394,42.044-21.967
			c19.284,1.507,32.081,12.113,38.414,30.474c2.829,8.203,2.564,16.67,2.612,25.145c0.016,2.747-1.398,2.714-3.481,2.689
			C1055.803,1124.892,1046.641,1124.952,1037.479,1124.949z M1023.186,1105.923c4.832,0,9.665-0.071,14.495,0.029
			c2.465,0.051,3.074-0.7,2.626-3.241c-1.619-9.184-8.229-15.75-16.466-15.98c-9.072-0.254-16.259,5.708-18.347,15.098
			c-0.626,2.816-0.343,4.368,3.2,4.168C1013.511,1105.725,1018.354,1105.929,1023.186,1105.923z"/>
		<path class="st1" d="M956.28,1099.511c0.001,20.486-0.015,40.973,0.012,61.46c0.007,5.361-0.688,10.667-2.097,15.776
			c-4.544,16.488-16.298,25.262-34.558,26.146c-7.17,0.347-14.225-0.445-21.219-2.091c-2.764-0.649-3.498-1.713-2.556-4.521
			c1.368-4.078,2.543-8.268,3.271-12.501c0.725-4.208,3.021-4.64,6.505-3.826c2.244,0.523,4.561,0.925,6.857,1.004
			c8.291,0.284,13.257-3.476,14.872-11.585c0.742-3.726,0.985-7.604,0.991-11.414c0.067-40.641,0.125-81.282-0.074-121.922
			c-0.022-4.542,1.268-5.683,5.574-5.403c5.806,0.377,11.666,0.327,17.479,0.011c3.869-0.21,5.08,0.855,5.04,4.907
			C956.165,1056.87,956.278,1078.19,956.28,1099.511z"/>
		<path class="st1" d="M2499.392,1127.754c0.001,11.327-0.077,22.655,0.053,33.98c0.035,3.024-0.433,4.45-4.038,4.237
			c-6.308-0.372-12.672-0.4-18.976,0.002c-3.812,0.244-4.409-1.168-4.393-4.493c0.115-21.987-0.078-43.977,0.169-65.962
			c0.053-4.689-1.001-6.358-5.959-6.134c-8.994,0.408-9.008,0.106-9.005-9.202c0.003-10.835,0-10.949,10.928-11.199
			c3.079-0.07,4.01-1.078,3.985-4.083c-0.068-8.278-0.58-16.56,2.59-24.603c3.35-8.499,9.366-14.138,17.624-17.174
			c10.615-3.9,21.445-3.387,32.12,0.188c2.69,0.899,4.972,2.195,2.868,5.671c-0.318,0.526-0.166,1.316-0.342,1.954
			c-1.105,3.998-1.368,8.583-3.582,11.836c-2.997,4.405-7.097-0.626-10.902-0.48c-9.386,0.361-13.078,3.496-13.158,12.851
			c-0.118,13.769-0.118,13.77,13.709,13.769c2.498,0,5.018,0.206,7.49-0.046c4.157-0.424,4.503,1.46,3.158,4.635
			c-0.129,0.305-0.292,0.598-0.393,0.911c-1.57,4.86-1.591,11.143-5.263,14.138c-3.58,2.921-9.61,0.867-14.552,0.867
			c-3.316,0-4.255,1.107-4.203,4.358C2499.499,1105.099,2499.39,1116.427,2499.392,1127.754z"/>
		<path class="st1" d="M1548.378,1119.117c0.002-8.658-0.102-17.317,0.057-25.973c0.058-3.12-0.674-4.419-4.147-4.399
			c-4.374,0.023-10.239,2.164-12.744-1.044c-2.127-2.726-0.277-8.333-0.803-12.589c-0.62-5.027,0.933-6.528,6.11-6.336
			c11.513,0.427,11.524,0.129,11.533-11.585c0.01-11.691,0.023-11.638,11.37-14.486c3.984-1.001,7.927-2.217,11.811-3.561
			c3.401-1.177,4.419-0.152,4.325,3.36c-0.2,7.486,0.044,14.984-0.103,22.475c-0.06,3.012,0.937,4.072,4.017,3.994
			c7.488-0.191,14.984-0.017,22.476-0.087c2.703-0.025,4.196,0.159,2.605,3.56c-2.434,5.197-3.006,12.288-6.903,15.488
			c-3.849,3.159-10.905,1.007-16.525,0.809c-4.309-0.152-5.839,0.992-5.73,5.525c0.295,12.313,0.375,24.646,0.03,36.957
			c-0.416,14.904,7.193,14.699,17.071,12.527c2.961-0.651,5.816-4.258,8.503-2.317c2.059,1.486,2.523,5.204,3.653,7.947
			c3.508,8.516,3.539,8.606-4.86,12.448c-10.132,4.633-20.854,7.172-31.923,5.764c-12.778-1.627-19.336-8.361-19.774-22.506
			C1548.157,1136.439,1548.376,1127.774,1548.378,1119.117z"/>
		<path class="st1" d="M2550.031,1120.467c0-8.995-0.116-17.993,0.06-26.985c0.066-3.372-0.851-5.142-4.479-4.622
			c-0.164,0.023-0.334,0.017-0.5,0.002c-4.253-0.381-10.603,1.976-12.326-0.96c-2.798-4.764-0.613-11.311-0.928-17.096
			c-0.104-1.909,1.449-1.894,2.824-1.893c2.998,0.003,6.029-0.281,8.988,0.062c4.882,0.566,7.076-0.82,6.461-6.197
			c-0.508-4.439-0.039-8.984-0.138-13.48c-0.05-2.278,0.476-3.533,3.038-4.206c6.862-1.803,13.619-4.007,20.396-6.12
			c2.968-0.926,4.062-0.253,3.949,3.123c-0.253,7.655,0.089,15.329-0.169,22.983c-0.107,3.198,0.952,3.966,3.943,3.894
			c7.491-0.18,14.997,0.128,22.484-0.143c3.622-0.131,3.748,1.064,2.589,3.872c-1.898,4.596-3.646,9.255-5.346,13.929
			c-0.818,2.255-2.526,2.259-4.434,2.241c-5.164-0.046-10.334,0.13-15.49-0.07c-2.864-0.11-3.734,0.873-3.715,3.7
			c0.098,14.325-0.072,28.652,0.049,42.977c0.051,6.117,3.721,9.365,9.904,9.311c4.391-0.04,8.572-1.223,12.385-3.217
			c2.555-1.336,3.424-0.723,4.31,1.712c1.358,3.733,2.899,7.414,4.617,10.996c1.023,2.134,0.588,3.38-1.384,4.48
			c-13.104,7.317-26.877,11.271-41.934,7.87c-8.902-2.011-14.791-9.379-15.005-18.681c-0.21-9.156-0.046-18.321-0.046-27.482
			C2550.103,1120.467,2550.066,1120.467,2550.031,1120.467z"/>
		<path class="st1" d="M2285.95,1084.667c-0.001-19.995,0.098-39.991-0.09-59.984c-0.035-3.741,17.814-5.601,21.619-5.396
			c6.147,0.33,12.338,0.322,18.486,0.002c3.844-0.201-12.182,1.787-12.195,5.469c-0.135,35.324-0.084,70.648-0.081,105.973
			c0,1.498-0.061,3.007,0.085,4.493c0.625,6.421,2.465,8.305,8.932,7.51c4.03-0.495,5.595,0.723,5.936,4.471
			c0.209,2.311,0.473,4.631,0.943,6.898c1.896,9.142,1.725,9.48-7.01,12.116c-5.995,1.81-12.176,2.058-18.281,1.339
			c-11.537-1.358-18.23-9.791-18.311-22.905C2285.861,1124.657,2285.951,1104.661,2285.95,1084.667z"/>
		<path class="st1" d="M1784.626,1117.238c0-14.651,0.129-29.305-0.092-43.952c-0.055-3.646,1.143-4.604,4.536-4.433
			c4.65,0.233,9.331,0.246,13.979-0.003c3.66-0.196,5.709,0.521,6.465,4.74c0.975,5.445,1.482,5.439,6.075,1.689
			c5.091-4.157,10.678-7.107,17.192-8.395c5.986-1.182,11.553,0.086,16.967,2.369c1.794,0.756,3.118,1.71,1.703,4.453
			c-2.949,5.719-5.375,11.723-7.763,17.711c-0.91,2.281-1.978,1.978-3.671,1.171c-9.082-4.329-17.212-2.308-25.039,3.426
			c-2.389,1.75-2.966,3.556-2.956,6.229c0.074,19.479-0.076,38.961,0.137,58.438c0.045,4.143-1.055,5.535-5.27,5.272
			c-5.804-0.362-11.659-0.301-17.472-0.01c-3.721,0.187-4.917-0.985-4.868-4.754
			C1784.737,1146.542,1784.627,1131.89,1784.626,1117.238z"/>
		<path class="st1" d="M2377.073,1117.646c0,14.474-0.099,28.948,0.07,43.42c0.041,3.536-0.667,5.089-4.633,4.889
			c-6.638-0.336-13.308-0.205-19.957-0.027c-2.676,0.07-3.419-0.865-3.414-3.429c0.063-30.112,0.071-60.224-0.014-90.335
			c-0.008-2.768,1.082-3.337,3.543-3.293c6.818,0.12,13.647,0.216,20.459-0.031c3.495-0.127,4.046,1.282,4.014,4.389
			C2376.987,1088.032,2377.072,1102.839,2377.073,1117.646z"/>
		<path class="st1" d="M1872.321,1153.631c0.143,14.323-4.642,26.572-13.101,37.574c-1.507,1.96-2.704,2.9-5.318,1.678
			c-3.725-1.741-7.688-2.981-11.577-4.358c-1.968-0.697-2.379-1.456-1.338-3.576c5.353-10.901,6.74-22.512,5.33-34.471
			c-0.412-3.486,0.598-4.859,4.237-5.319c5.896-0.745,11.704-2.186,17.543-3.361c1.928-0.389,2.962,0.088,3.547,2.222
			C1872.552,1147.327,1872.061,1150.646,1872.321,1153.631z"/>
		<path class="st1" d="M2363.214,1055.034c-9.445-0.081-16.816-7.237-16.675-16.187c0.14-8.85,7.788-16.053,17.011-16.021
			c9.35,0.031,16.84,7.366,16.613,16.269C2379.932,1048.253,2372.634,1055.116,2363.214,1055.034z"/>
		<path class="st1" d="M1987.577,1039.213c-0.188,9.401-7.269,16.124-16.688,15.847c-9.558-0.281-16.68-7.304-16.508-16.276
			c0.172-8.979,8.166-16.255,17.534-15.96C1981.251,1023.117,1987.764,1029.933,1987.577,1039.213z"/>
		<path class="st1" d="M2407.207,1038.977c-0.058-9.017,7.272-16.159,16.571-16.146c9.328,0.012,16.559,7.067,16.574,16.176
			c0.017,9.056-7.202,16.007-16.65,16.035C2414.271,1055.069,2407.267,1048.248,2407.207,1038.977z"/>
		<path class="st3" d="M465.063,700.634c0,9.828-0.123,19.659,0.069,29.484c0.064,3.25-0.856,4.232-4.178,4.195
			c-27.173-0.306-54.048-3.077-80.47-9.544c-57.904-14.172-108.562-41.953-152.969-81.513c-11.188-9.966-21.753-20.571-32.69-30.791
			c-2.978-2.783-3.024-4.661-0.096-7.606c13.499-13.575,26.869-27.282,40.075-41.144c2.628-2.759,4.154-2.596,6.747-0.146
			c13.06,12.339,25.951,24.867,39.781,36.366c19.133,15.908,40.247,28.647,62.5,39.663c16.826,8.33,34.3,14.82,52.497,19.317
			c21.048,5.202,42.508,7.463,64.137,8.021c3.726,0.096,4.797,0.958,4.689,4.712C464.879,681.305,465.063,690.972,465.063,700.634z"
			/>
		<path class="st3" d="M387.111,108.106c24.308,0,48.617,0.065,72.924-0.071c3.641-0.021,5.201,0.525,5.141,4.777
			c-0.263,18.478-0.209,36.961-0.031,55.44c0.035,3.671-0.878,4.813-4.696,4.803c-49.282-0.128-98.565-0.135-147.847,0.009
			c-3.987,0.012-4.6-1.38-4.569-4.899c0.159-18.479,0.182-36.962-0.014-55.441c-0.04-3.715,0.893-4.737,4.67-4.71
			C337.495,108.193,362.303,108.106,387.111,108.106z"/>
		<path class="st1" d="M2277.613,479.136c-25.488,0.002-50.978-0.099-76.464,0.097c-4.459,0.034-5.117-1.415-4.797-5.514
			c1.337-17.127,5.213-33.492,13.949-48.407c15.075-25.735,37.195-40.672,67.421-40.827c33.041-0.169,55.817,16.727,70.099,45.775
			c6.749,13.729,9.881,28.469,11.158,43.678c0.343,4.074-0.547,5.345-4.902,5.307
			C2328.591,479.02,2303.102,479.134,2277.613,479.136z"/>
		<path class="st1" d="M1836.122,479.139c-24.986-0.008-49.973-0.009-74.959-0.007c-6.538,0-6.501,0.007-6.234-6.463
			c0.801-19.396,6.42-37.299,17.317-53.331c16.067-23.638,38.595-35.986,67.208-34.819c33.494,1.365,55.323,20.045,68.393,49.883
			c5.571,12.719,8.385,26.185,9.302,40.07c0.246,3.726-0.732,4.794-4.569,4.767C1887.095,479.06,1861.608,479.146,1836.122,479.139z
			"/>
		<path class="st3" d="M2201.167,1117.706c0-7.647,0.085-15.296-0.051-22.941c-0.043-2.407,0.683-3.468,3.1-4.129
			c21.146-5.781,34.328,10.374,34.216,24.686c-0.099,12.603-4.398,22.227-16.009,27.858c-2.345,1.138-4.943,2.011-7.515,2.379
			c-11.59,1.658-13.778-0.311-13.774-11.893c0.001-5.32,0-10.64,0-15.96C2201.145,1117.706,2201.155,1117.706,2201.167,1117.706z"/>
		<path class="st3" d="M1270.98,1117.514c0.434-6.806,1.037-13.24,4.294-19.077c3.715-6.66,9.364-10.344,16.979-10.319
			c7.775,0.025,14.288,2.942,18.134,10.108c6.2,11.552,6.139,23.623,1.634,35.549c-3.658,9.688-10.339,13.497-20.584,13.11
			c-7.385-0.279-15.105-6.46-17.932-14.538C1271.794,1127.456,1271.288,1122.325,1270.98,1117.514z"/>
		<path class="st3" d="M2720.249,1105.928c-4.658,0.003-9.32-0.102-13.974,0.045c-2.546,0.08-3.619-0.586-3.262-3.368
			c1.193-9.279,9.251-16.218,18.651-15.871c8.32,0.308,16.005,8.365,16.477,17.071c0.141,2.585-1.558,2.083-2.921,2.099
			C2730.23,1105.958,2725.239,1105.925,2720.249,1105.928z"/>
		<path class="st3" d="M2051.632,1105.929c-4.664,0-9.334-0.12-13.993,0.042c-3.097,0.107-3.636-1.23-3.165-3.964
			c1.509-8.758,9.157-15.46,17.648-15.286c8.791,0.18,15.869,6.763,17.125,15.769c0.363,2.604-0.392,3.59-3.121,3.489
			C2061.3,1105.802,2056.464,1105.929,2051.632,1105.929z"/>
		<path class="st3" d="M1718.791,1105.937c-4.165-0.006-8.367-0.355-12.485,0.084c-5.015,0.534-5.29-1.446-4.187-5.545
			c2.449-9.092,10.641-14.874,19.804-13.559c7.688,1.105,14.837,9.394,14.971,17.097c0.039,2.273-1.39,1.895-2.609,1.906
			C1729.12,1105.971,1723.956,1105.941,1718.791,1105.937z"/>
		<path class="st3" d="M1023.186,1105.926c-4.832,0.003-9.675-0.201-14.491,0.07c-3.543,0.2-3.826-1.352-3.2-4.168
			c2.088-9.39,9.274-15.352,18.347-15.098c8.237,0.23,14.847,6.797,16.466,15.98c0.448,2.541-0.161,3.292-2.626,3.241
			C1032.851,1105.852,1028.018,1105.923,1023.186,1105.926z"/>
	</g>
</g>
</svg>
